<svg width="28" height="28" viewBox="0 0 24 24" fill="none" xmlns="http://www.w3.org/2000/svg">
<path d="M9.23999 20.17H14.77C14.22 21.13 13.19 21.76 12.01 21.76C10.82 21.75 9.78999 21.12 9.23999 20.17Z" fill="#D7E0FF" opacity=".5"/>
<path d="M20.49 18.29C20.05 18.85 19.39 19.17 18.68 19.17H16.7V19.16H8.24002C8.20002 18.93 8.17004 18.69 8.17004 18.44V18.43C8.17004 18.42 8.17004 18.42 8.17004 18.42V18.39C8.18004 18.31 8.19003 18.23 8.22003 18.16C8.23003 18.13 8.24004 18.11 8.26004 18.08C8.28004 18.03 8.32002 17.98 8.36002 17.93C8.38002 17.91 8.40004 17.89 8.42004 17.86C8.43004 17.85 8.44002 17.84 8.46002 17.83L17.71 10.63C17.93 10.46 18.24 10.42 18.5 10.55C18.75 10.67 18.92 10.94 18.92 11.22V14.6C19.87 14.72 20.68 15.4 20.9 16.3C21.08 17 20.92 17.73 20.49 18.29Z" fill="#D7E0FF" opacity=".5"/>
<path d="M21.84 4.59C21.59 4.27 21.12 4.21001 20.79 4.46001L17.95 6.67C17.65 6.17 17.3 5.71 16.89 5.31C15.76 4.18 14.31 3.49001 12.75 3.32001V3C12.75 2.59 12.41 2.25 12 2.25C11.59 2.25 11.25 2.59 11.25 3V3.32001C7.79 3.70001 5.07999 6.63 5.07999 10.19V14.59C3.92999 14.71 3.03 15.69 3.03 16.87C3.03 17.14 3.07001 17.4 3.16001 17.64C3.21001 17.78 3.30001 17.89 3.41001 17.98L2.29001 18.85C1.96001 19.11 1.90001 19.58 2.16001 19.91C2.31001 20.09 2.53 20.19 2.75 20.19C2.91 20.19 3.06999 20.14 3.20999 20.04L21.71 5.64999C22.04 5.38999 22.1 4.92 21.84 4.59Z" fill="#D7E0FF" opacity=".5"/>
</svg>
