<svg width="28" height="28" viewBox="0 0 24 24" fill="none" xmlns="http://www.w3.org/2000/svg">
<path d="M9.23999 20.41H14.77C14.22 21.37 13.19 22 12.01 22C10.81 22 9.78999 21.37 9.23999 20.41Z" fill="#D7E0FF" opacity=".5"/>
<path d="M21.32 17.19C21.32 17.69 21.16 18.15 20.91 18.53C20.48 19.16 19.77 19.58 18.95 19.58H5.06003C4.81003 19.58 4.57004 19.54 4.35004 19.47C3.82004 19.31 3.38002 18.98 3.08002 18.53C2.83002 18.15 2.67004 17.69 2.67004 17.19C2.67004 16.12 3.38003 15.22 4.34003 14.91C4.49003 14.87 4.64002 14.84 4.80002 14.82V10.25C4.80002 6.55 7.62002 3.51 11.21 3.11V2.78C11.21 2.35 11.56 2 11.99 2C12.42 2 12.77 2.35 12.77 2.78V3.11C14.39 3.29 15.9 3.99999 17.07 5.17999C18.43 6.51999 19.18 8.33 19.18 10.25V14.82C20.38 14.95 21.32 15.96 21.32 17.19Z" fill="#D7E0FF" opacity=".5"/>
</svg>
